<svg width="96" height="96" xmlns="http://www.w3.org/2000/svg" xmlns:xlink="http://www.w3.org/1999/xlink" xml:space="preserve" overflow="hidden"><defs><clipPath id="clip0"><rect x="504" y="583" width="96" height="96"/></clipPath></defs><g clip-path="url(#clip0)" transform="translate(-504 -583)"><path d="M574 585 530 585C527.794 585.007 526.007 586.794 526 589L526 673C526.007 675.206 527.794 676.993 530 677L574 677C576.206 676.993 577.993 675.206 578 673L578 589C577.993 586.794 576.206 585.007 574 585ZM548.5 589 555.5 589C556.328 589 557 589.672 557 590.5 557 591.328 556.328 592 555.5 592L548.5 592C547.672 592 547 591.328 547 590.5 547 589.672 547.672 589 548.5 589ZM574 666 530 666 530 596 574 596Z"/><path d="M546 623C550.418 623 554 619.418 554 615 554 610.582 550.418 607 546 607 541.582 607 538 610.582 538 615 538 619.418 541.582 623 546 623ZM545.983 610.088C547.221 610.088 548.225 611.092 548.225 612.33 548.225 613.568 547.221 614.572 545.983 614.572 544.745 614.572 543.741 613.568 543.741 612.33 543.744 611.093 544.746 610.091 545.983 610.088ZM541.5 617.374C541.506 617.022 541.671 616.691 541.948 616.474 542.611 615.997 543.35 615.637 544.134 615.409 544.735 615.234 545.358 615.14 545.984 615.129 546.611 615.131 547.234 615.226 547.833 615.409 548.626 615.614 549.369 615.976 550.019 616.474 550.297 616.691 550.461 617.022 550.468 617.374L550.468 619.087 541.5 619.087Z"/><path d="M548.583 641.3C549.19 642.104 549.665 643 549.99 643.954L555.97 640.366C555.293 639.621 554.738 638.774 554.326 637.855Z"/><path d="M550.743 623.219 555.343 628.397C555.938 627.584 556.659 626.87 557.478 626.283L553.068 621.322C552.397 622.073 551.613 622.713 550.743 623.219Z"/><path d="M563 626C558.582 626 555 629.582 555 634 555 638.418 558.582 642 563 642 567.418 642 571 638.418 571 634 571 629.582 567.418 626 563 626ZM562.983 629.088C564.221 629.088 565.225 630.092 565.225 631.33 565.225 632.568 564.221 633.572 562.983 633.572 561.745 633.572 560.741 632.568 560.741 631.33 560.744 630.093 561.746 629.091 562.983 629.088ZM567.467 638.088 558.5 638.088 558.5 636.374C558.506 636.022 558.671 635.691 558.948 635.474 559.611 634.997 560.35 634.637 561.134 634.409 561.735 634.234 562.358 634.14 562.984 634.129 563.611 634.131 564.234 634.226 564.833 634.409 565.626 634.614 566.369 634.976 567.019 635.474 567.297 635.691 567.461 636.022 567.468 636.374Z"/><path d="M543.072 624.033 541.234 637.512C542.241 637.536 543.239 637.722 544.187 638.062L546.037 624.5 546 624.5C545.005 624.499 544.017 624.342 543.072 624.033Z"/><path d="M549 647C549 642.582 545.418 639 541 639 536.582 639 533 642.582 533 647 533 651.418 536.582 655 541 655 545.418 655 549 651.418 549 647ZM540.983 642.088C542.221 642.088 543.225 643.092 543.225 644.33 543.225 645.568 542.221 646.572 540.983 646.572 539.745 646.572 538.741 645.568 538.741 644.33 538.744 643.093 539.746 642.091 540.983 642.088ZM545.466 651.088 536.5 651.088 536.5 649.374C536.506 649.022 536.671 648.691 536.948 648.474 537.611 647.998 538.35 647.638 539.134 647.409 539.735 647.234 540.358 647.139 540.984 647.128 541.611 647.131 542.234 647.225 542.833 647.409 543.626 647.614 544.369 647.976 545.019 648.474 545.296 648.691 545.461 649.022 545.467 649.374Z"/></g></svg>